<?xml version="1.0" encoding="utf-8"?>
<!-- Generator: Adobe Illustrator 21.0.0, SVG Export Plug-In . SVG Version: 6.00 Build 0)  -->
<svg version="1.1" id="圖層_1" xmlns="http://www.w3.org/2000/svg" xmlns:xlink="http://www.w3.org/1999/xlink" x="0px" y="0px"
	 viewBox="0 0 597.4 515.7" style="enable-background:new 0 0 597.4 515.7;" xml:space="preserve">
<style type="text/css">
	.st0{fill:#931A1D;}
	.st1{fill:#FFC10D;}
	.st2{fill:#213163;}
	.st3{fill:#EC1C24;}
</style>
<title>favicon</title>
<g>
	<path class="st0" d="M235.5,327.6c-58.6,34.1-34,30.4-107.9,35.8c-56.7,4.2-102.5-18.3-118.2-65c-3.1-9.2-4.8-18.9-5.4-28.9
		c36,49.9,126.8,58.6,211.3,13.2c1.7-0.9,3.4-1.9,5.1-2.8c14.7-7.9,23.7-18.3,41.2-24"/>
	<path class="st1" d="M398.1,41.2c0-7,0.9-13.8,2.6-20.3C351.9,12.6,286.9,5.3,251.1,5.3c-34.7,0-96.8,6.8-145,14.8
		c1.8,6.7,2.9,13.8,2.9,21.1c0,42.4-33.3,77-75.2,79c5.2,69.9,23.2,165,44.4,216.3c35.2,85,156.8,159.8,173,173
		c16.1-13.2,137.8-87.9,172.9-173c21.3-51.4,39.3-146.7,44.4-216.7C428.9,115.5,398.1,81.9,398.1,41.2z"/>
	<path class="st2" d="M375.4,29.2c-47.5-6.6-96.4-11.1-124.3-11.1c0,0-0.1,0-0.1,0c-26.9,0-72.8,4.1-118.8,10.3
		c-5.3,50-37.5,92.1-82.2,111.1c4.3,36.2,10.8,74.3,18.4,108.7c7.8,35.2,16.7,66.5,25.7,88c27,65.1,113.7,129.8,156.9,160.4
		c0,0,0.1-0.1,0.1-0.1c43.2-30.7,129.9-95.3,156.8-160.3c8.9-21.6,17.9-52.9,25.7-88c7.8-35.1,14.4-74.2,18.7-111.1
		C410.3,117.2,380.7,76.7,375.4,29.2z"/>
	<g>
		<g>
			<path class="st1" d="M252.9,389.8l-6.8-28.6l52.1-221l0.5-0.8c4.5-7.3,10.5-9.6,14.7-10.2c5.4-0.8,10.7,0.7,14.9,2.6
				c-0.1-4.8-1.4-8.8-3.9-12c-5.8-7.2-16.8-8.3-18.1-8.4l-81,0.3l-5.2,44.9L209.8,143l4.7-43l92.4-0.4c0.7,0,17.9,1,27.7,13.1
				c6.4,7.9,8.1,18.3,5.1,30.9l-2.4,10.1l-8.1-7c-2-1.7-8.8-6.3-13.8-5.6c-0.7,0.1-2.9,0.4-5.1,3.6L252.9,389.8z"/>
			<path class="st1" d="M253,416.9l-13.3-55.7l52.6-223.4l1-1.7c5.8-9.4,13.6-12.3,19.1-13.1c2-0.3,4.1-0.4,6.2-0.2
				c-3.5-3.4-9.6-4.8-12.6-5.1l-75.2,0.3l-6.4,55l-21.2-28.3l5.5-51l98.1-0.4l0.2,0c2.1,0.1,20.9,1.4,32.3,15.4
				c7.7,9.5,9.8,21.7,6.3,36.3l-4.8,20.1L325,151.4c-2.4-2-7-4.4-8.8-4.1c0,0-0.1,0.1-0.3,0.2L253,416.9z M252.5,361.2l0.4,1.5
				l51.5-220.6l0.7-1c0.2-0.3,0.5-0.7,0.7-1c-0.6,0.7-1.3,1.6-1.8,2.5L252.5,361.2z M329.3,139.2c2.2,1.4,3.7,2.6,3.8,2.7l0.4,0.4
				l0-0.2c0.1-0.3,0.1-0.6,0.2-0.9L329.3,139.2z M329.2,115.9c0,0,0.1,0.1,0.1,0.1c3.4,4.2,5.2,9.6,5.3,15.8l0.1,4.7
				c1-8.1-0.7-14.8-4.8-20C329.5,116.3,329.3,116.1,329.2,115.9z"/>
		</g>
	</g>
	<g>
		<path class="st1" d="M250,404c-4.9-25.1-19.3-45-45.1-51.6c0,0-6.9-1.6-15.1-1.7c-11.2,0.6-21.2-2.1-29.1-7.2
			c-13.4-8.6-21-24.1-18.7-42.3c0.5-3.6,1.3-7.1,2.4-10.5c1.9,22.8,20.2,39.3,45.3,39.2c0.5,0,1,0,1.5,0c4.3,0,8.9,0.6,13.6,1.8
			c6.3,1.6,5.2,0.7,10.8,4.1c20.6,12.5,35.3,35.5,35.3,58.2C251.1,397.4,250.7,400.8,250,404z"/>
		<path class="st1" d="M249.7,434.7l-5.8-29.6c-3.4-17.5-13.3-39.7-40.4-46.7c-0.7-0.2-6.7-1.4-13.6-1.6c-12,0.6-23.3-2.2-32.6-8.2
			c-16-10.3-24.1-28.4-21.5-48.3c0.5-3.9,1.4-7.8,2.7-11.7l9.7-28.6l2.4,30.1c1.6,19.7,17.6,33.5,38.8,33.5c0.1,0,0.1,0,0.2,0
			c0.4,0,0.9,0,1.4,0l0.2,0c0,0,0.1,0,0.1,0c4.9,0,10,0.7,15,2c1.4,0.4,2.5,0.6,3.3,0.8c3.5,0.8,4.5,1.1,9.2,4
			c22.9,13.9,38.3,39.4,38.3,63.5c0,3.9-0.4,7.8-1.2,11.4L249.7,434.7z M189.7,344.4l0.2,0c8.7,0.2,16,1.8,16.3,1.9l0.2,0
			c10.2,2.6,19.2,7.3,26.6,13.8c-5.4-7.5-12.4-14.2-20.6-19.1c-3.4-2-3.4-2-5.5-2.5c-0.9-0.2-2.1-0.5-3.7-0.9c-4-1-8.1-1.6-11.9-1.6
			c0,0,0,0,0,0c-0.5,0-1.1,0-1.6,0c-16.7,0.1-31.1-6.5-40.4-17.4c2.4,8,7.4,14.9,14.6,19.5c7.1,4.6,15.9,6.7,25.4,6.2L189.7,344.4z"
			/>
	</g>
	<path class="st3" d="M533.7,177.3C486.5,229,384,249.4,287,222.5c0,0-25.8-7.7-54.3-20.9c-38-20-75.8-30.1-109.4-31.1
		c-56.8-1.7-101.6,22.7-115.2,70.1c-2.7,9.3-4,19.1-4.1,29.1c33.8-51.4,117.2-60.2,203.6-18.5c1.8,0.8,3.5,1.7,5.3,2.6
		c15,7.2,31.4,13.4,49.1,18.3c23.7,6.6,47.7,10.3,71.2,11.5c86.1,4.3,164.7-26.3,191.9-80.3C529.5,194.7,532.3,186.1,533.7,177.3z"
		/>
	<g>
		<path class="st2" d="M593.4,198.3l-43.3-2l-15.3,40.9c-3.3-12.2-8.3-29.5-11.7-42.2l-43.2-2l36.2-23.8l-11.6-41.9
			c9.8,7.8,23.8,19.2,34.1,27.4l36.2-24.2c-5.2,14.1-11,29.4-15.2,40.9L593.4,198.3z"/>
	</g>
</g>
</svg>
