<?xml version="1.0" encoding="utf-8"?>
<!-- Generator: Adobe Illustrator 21.0.0, SVG Export Plug-In . SVG Version: 6.00 Build 0)  -->
<svg version="1.1" id="圖層_1" xmlns="http://www.w3.org/2000/svg" xmlns:xlink="http://www.w3.org/1999/xlink" x="0px" y="0px"
	 viewBox="0 0 107.7 32.4" style="enable-background:new 0 0 107.7 32.4;" xml:space="preserve">
<style type="text/css">
	.st0{fill:#231F20;}
	.st1{opacity:0.31;fill:#CD2027;enable-background:new    ;}
	.st2{fill:#ED1C24;}
	.st3{fill:#931A1D;}
	.st4{fill:#FFC10D;}
	.st5{fill:#213163;}
	.st6{fill:#EC1C24;}
</style>
<title>logo</title>
<path class="st0" d="M44,28.5c0.8-0.5,1.5-1.2,2-2l0.5,0.2c-0.5,0.7-1,1.3-1.7,1.9c1.2,0,2.3-0.1,3.4-0.2c-0.2-0.3-0.5-0.6-0.7-0.9
	l0.4-0.2c0.5,0.6,1,1.3,1.5,2l-0.4,0.2c-0.2-0.3-0.3-0.5-0.5-0.7c-1.3,0.1-2.8,0.2-4.4,0.3L44,28.5z M48.6,32.1h-0.4v-0.3H45v0.3
	h-0.5v-2.6h4.1L48.6,32.1z M48.2,31.4v-1.4H45v1.4H48.2z"/>
<path class="st0" d="M55.1,29.7c0,0.2-0.1,0.3-0.1,0.5h2.4v0.4h-2.6c-0.1,0.3-0.3,0.5-0.6,0.8c-0.6,0.5-1.4,0.7-2.1,0.8l-0.2-0.4
	c0.7-0.1,1.4-0.3,2-0.7c0.2-0.1,0.3-0.3,0.4-0.5h-2.1v-0.4h2.3c0.1-0.2,0.1-0.3,0.1-0.5L55.1,29.7z M53.7,27
	c-0.1-0.2-0.2-0.4-0.3-0.6l0.5-0.1c0.1,0.2,0.2,0.4,0.3,0.7h1.3c0.1-0.2,0.2-0.4,0.2-0.7l0.5,0.1c-0.1,0.2-0.1,0.4-0.3,0.6h1.4v0.4
	H55v0.6H57v0.4H55V29h2.5v0.4h-5.4V29h2.5v-0.6h-1.9v-0.4h1.9v-0.6h-2.3V27L53.7,27z M57.6,31.7l-0.2,0.4c-0.8-0.4-1.6-0.8-2.4-1
	l0.2-0.3C56.1,31,56.9,31.3,57.6,31.7z"/>
<path class="st0" d="M62.2,28v0.7h0.2c0.1,0,0.2-0.1,0.2-0.2c0-0.3,0.1-0.5,0.1-0.8H61c-0.2,0.3-0.4,0.5-0.6,0.6l-0.2-0.3
	c0.3-0.2,0.6-0.5,0.7-0.9l0.4,0.1c0,0,0,0.1,0,0.2h1.9c0,0.4,0,0.9-0.1,1.3c0,0-0.1,0.1-0.1,0.1h0.3c0.1,0.1,0.1,0.2,0.2,0.4h2.4
	v0.3h-5.3v-0.3h2.5c0-0.1-0.1-0.2-0.2-0.3c-0.1,0-0.2,0-0.2,0h-0.2v-0.2h-1.4v-0.8L62.2,28z M61.6,26.4v0.8h-0.4v-0.2h-0.9v-0.3h0.9
	v-0.3H61.6z M65.2,32.1h-0.4v-0.1h-3.3v0.2H61V31h4.2L65.2,32.1z M65,29.8v0.3h-3.9v-0.3H65z M65,30.4v0.3h-3.9v-0.3L65,30.4z
	 M61.8,28.2h-0.6v0.4h0.6V28.2z M64.8,31.6v-0.4h-3.3v0.4H64.8z M62.4,26.4v0.3h0.8v0.3h-0.8v0.2H62v-0.8H62.4z M63.4,27.8l-0.2-0.3
	c0.3-0.3,0.6-0.7,0.7-1.2l0.4,0.1c0,0.1-0.1,0.2-0.1,0.3h1.6v0.4h-0.4c-0.1,0.3-0.2,0.6-0.4,0.9c0.3,0.2,0.6,0.4,0.8,0.6l-0.3,0.3
	c-0.3-0.2-0.5-0.4-0.8-0.6c-0.3,0.3-0.7,0.5-1.2,0.6l-0.2-0.3c0.4-0.1,0.7-0.2,1-0.5l-0.6-0.3l0.3-0.2l0.6,0.3
	c0.2-0.2,0.3-0.5,0.3-0.7h-0.9C63.8,27.4,63.6,27.7,63.4,27.8L63.4,27.8z"/>
<path class="st0" d="M69.8,28.9l-0.3,0.3c-0.3-0.3-0.6-0.7-1-0.9l0.3-0.3C69.2,28.2,69.5,28.6,69.8,28.9z M70,29.8
	c-0.3,0.8-0.6,1.5-1,2.2l-0.4-0.2c0.4-0.7,0.7-1.5,1-2.2L70,29.8z M70.1,27.4l-0.3,0.3c-0.3-0.4-0.7-0.7-1.1-0.9l0.3-0.3
	C69.4,26.8,69.7,27.1,70.1,27.4z M71.3,27.7l-0.4,0.2c-0.2-0.4-0.4-0.7-0.7-1l0.4-0.2C70.9,26.9,71.1,27.3,71.3,27.7L71.3,27.7z
	 M72.3,26.4v1.7h1.3v3.3c0,0.4-0.2,0.6-0.6,0.6h-0.7l-0.1-0.4h0.7c0.1,0,0.3-0.1,0.3-0.2c0,0,0,0,0-0.1v-0.6H71V32h-0.4v-3.9h1.3
	v-1.7L72.3,26.4z M73.2,28.6H71v0.7h2.2L73.2,28.6z M71,30.4h2.2v-0.7H71V30.4z M73.9,26.7c-0.2,0.4-0.4,0.8-0.7,1.1l-0.3-0.2
	c0.3-0.3,0.5-0.7,0.7-1.1L73.9,26.7z"/>
<path class="st0" d="M79.8,27.5h1.9v0.3c-0.7,1.3-1.8,2.4-3.2,3.1l0,0c0.3,0.3,0.6,0.5,1,0.5h1.2h1.4L82,31.9h-1.2h-1.2
	c-0.6,0-1.1-0.2-1.5-0.7c-0.1-0.1-0.2-0.2-0.3-0.2c-0.2,0-0.4,0.3-0.8,1l-0.4-0.2c0.4-0.8,0.8-1.2,1.1-1.2c0.1,0,0.1,0,0.2,0.1h0.1
	c1.2-0.6,2.2-1.6,2.9-2.7h-4v-0.4h2.1c-0.2-0.4-0.4-0.7-0.6-1l0.5-0.1C79.4,26.7,79.6,27.1,79.8,27.5z"/>
<path class="st0" d="M86.8,27.3c0-0.3,0.1-0.6,0.1-0.8h0.4c0,0.3-0.1,0.6-0.1,0.8h3.2v0.4h-3.3C87.1,28,87,28.3,87,28.6h2.8V29
	c-0.2,0.7-0.6,1.3-1.2,1.8c0.6,0.4,1.2,0.7,1.9,0.9l-0.2,0.4c-0.7-0.2-1.4-0.5-2-1c-0.6,0.4-1.3,0.8-2,1L86,31.6
	c0.7-0.2,1.3-0.5,1.9-0.9c-0.5-0.5-0.8-1.1-1-1.7l0,0c-0.1,0.3-0.2,0.5-0.2,0.8c-0.3,0.8-0.8,1.6-1.4,2.2l-0.3-0.4
	c0.6-0.6,1-1.3,1.3-2c0.2-0.6,0.4-1.3,0.5-2h-1.6v-0.4L86.8,27.3z M88.3,30.5c0.4-0.4,0.8-0.9,1-1.5h-2
	C87.5,29.6,87.9,30.1,88.3,30.5z"/>
<path class="st0" d="M93.8,27.9v-1.4h0.4v1.4h0.7v0.4h-0.7V32h-0.4v-3.7h-0.7v-0.4L93.8,27.9z M96.4,31.6c-0.1,0.2-0.3,0.4-0.5,0.4
	h-0.4l-0.1-0.4h0.4c0.2,0,0.3-0.1,0.3-0.3c0.1-0.5,0.1-1,0.1-1.5h-0.5c0,0.4-0.1,0.7-0.2,1.1c-0.2,0.4-0.4,0.8-0.8,1.2l-0.3-0.3
	c0.3-0.3,0.5-0.6,0.7-1c0.1-0.3,0.1-0.6,0.2-0.9h-0.6v-0.4h0.6c0-0.2,0-0.4,0-0.6h0.4c0,0.2,0,0.4,0,0.6h0.9
	C96.6,30.1,96.5,30.9,96.4,31.6z M98.1,28.4c-0.2,0.2-0.4,0.3-0.7,0.3H97l-0.1-0.4c0.2,0,0.3,0,0.5,0c0.2,0,0.4-0.1,0.4-0.3
	c0-0.2,0.1-0.4,0.1-0.6h-1.1v0.2c-0.1,0.3-0.2,0.5-0.4,0.7c-0.3,0.2-0.6,0.4-1,0.5l-0.2-0.4c0.3-0.1,0.6-0.2,0.9-0.3
	c0.2-0.1,0.3-0.3,0.4-0.6l0,0h-1.1V27h1.2c0-0.2,0-0.3,0-0.5h0.4c0,0.2,0,0.3,0,0.5h1.5C98.3,27.5,98.3,27.9,98.1,28.4z M98.5,31.6
	C98.5,31.9,98.3,32,98,32h-0.5l-0.1-0.4h0.5c0.2,0,0.2-0.1,0.3-0.3c0.1-0.5,0.1-1,0.1-1.5h-0.6c0,0.4-0.1,0.7-0.2,1.1
	c-0.2,0.4-0.4,0.8-0.8,1.2l-0.3-0.3c0.3-0.3,0.5-0.6,0.6-1c0.1-0.3,0.1-0.6,0.2-0.9h-0.5v-0.4h0.5c0-0.2,0-0.4,0-0.6h0.4
	c0,0.2,0,0.4,0,0.6h0.9C98.7,30.1,98.7,30.9,98.5,31.6L98.5,31.6z"/>
<path class="st0" d="M101.6,28.3l-0.2-0.4c0.9-0.4,1.9-0.9,2.7-1.5h0.3c0.8,0.6,1.8,1.1,2.7,1.4l-0.2,0.4c-0.5-0.2-1-0.5-1.4-0.7
	v0.3h-2.4v-0.2C102.5,27.8,102.1,28,101.6,28.3z M106.3,28.1v1.6H102v-1.6H106.3z M106.1,32.1h-0.4v-0.2h-3v0.2h-0.4v-2h3.9
	L106.1,32.1z M104,28.5h-1.6v0.9h1.6L104,28.5z M105.7,30.8v-0.4h-3v0.4L105.7,30.8z M105.7,31.5v-0.4h-3v0.4H105.7z M103.5,29.2
	l-0.3,0.1c-0.1-0.2-0.2-0.4-0.3-0.6l0.3-0.1C103.3,28.8,103.4,29,103.5,29.2L103.5,29.2z M104.2,26.8c-0.3,0.2-0.7,0.4-1.1,0.7h2.2
	C104.9,27.3,104.5,27,104.2,26.8L104.2,26.8z M105.9,28.5h-1.5v0.9h1.6L105.9,28.5z M105.4,28.7c-0.1,0.2-0.2,0.4-0.3,0.6l-0.3-0.1
	c0.1-0.2,0.2-0.4,0.3-0.6L105.4,28.7z"/>
<path class="st0" d="M52.2,7.3h-3.7v13.6h-2.4V7.3h-3.6"/>
<path class="st0" d="M69.2,17.1l1.7,3.8h2.6L66,4.1l-7.9,16.8h2.6l1.7-3.8l1-2.3 M63.4,14.8l2.4-5.4l2.4,5.4l1,2.3"/>
<path class="st0" d="M89,7.3h-5.5v4h5.3v2.3h-5.3v7.3h-2.4V5h8L89,7.3z"/>
<path class="st0" d="M100.2,5c1.5-0.1,2.9,0.2,4.2,0.9c1.2,0.9,1.9,2.3,1.9,3.7c0.1,2.1-1.4,4-3.5,4.4l5,6.8h-2.9l-4.6-6.5h-0.4v6.5
	h-2.4V5H100.2z M99.8,12.4h0.8c0.7,0,3.4-0.1,3.4-2.6c0-2.2-2.1-2.5-3.3-2.5h-0.8V12.4z"/>
<path class="st1" d="M45.7,3L45.7,3z"/>
<path class="st2" d="M56.8,2.7c-1.5,2.2-5.1,3.5-8.5,2.9c-0.7-0.1-1.3-0.3-2-0.5c-1.2-0.5-2.6-0.8-3.9-0.7c-1.9,0.1-3.5,1.4-3.9,3.2
	c-0.1,0.4-0.1,0.8-0.1,1.1c1.1-2.1,4-2.9,7.1-1.7l0.2,0.1c0.6,0.2,1.2,0.4,1.8,0.5c0.8,0.1,1.7,0.2,2.5,0.1c3-0.3,5.7-1.8,6.5-4
	C56.7,3.4,56.8,3.1,56.8,2.7z"/>
<path class="st2" d="M77.8,11.9c-1.5,2.2-5.1,3.5-8.5,2.9c-0.7-0.1-1.3-0.3-2-0.5c-1.2-0.5-2.5-0.8-3.8-0.7
	c-1.9,0.1-3.5,1.4-3.9,3.2c-0.1,0.4-0.1,0.7-0.1,1.1c1.1-2.1,4-2.9,7.1-1.7l0.2,0.1c0.6,0.2,1.2,0.4,1.8,0.5
	c0.8,0.1,1.7,0.2,2.5,0.1c3-0.3,5.7-1.8,6.5-4C77.6,12.6,77.7,12.3,77.8,11.9z"/>
<g>
	<path class="st3" d="M15.3,20.7c-3.6,2.1-2.1,1.9-6.6,2.2c-3.5,0.3-6.3-1.1-7.3-4c-0.2-0.6-0.3-1.2-0.3-1.8c2.2,3.1,7.8,3.6,13,0.8
		c0.1-0.1,0.2-0.1,0.3-0.2c0.9-0.5,1.5-1.1,2.5-1.5"/>
	<path class="st4" d="M25.3,3.1c0-0.4,0.1-0.9,0.2-1.2c-3-0.5-7-1-9.2-1c-2.1,0-6,0.4-8.9,0.9c0.1,0.4,0.2,0.8,0.2,1.3
		c0,2.6-2,4.7-4.6,4.9c0.3,4.3,1.4,10.1,2.7,13.3c2.2,5.2,9.6,9.8,10.6,10.6c1-0.8,8.5-5.4,10.6-10.6c1.3-3.2,2.4-9,2.7-13.3
		C27.2,7.7,25.3,5.6,25.3,3.1z"/>
	<path class="st5" d="M23.9,2.4C21,2,18,1.7,16.3,1.7c0,0,0,0,0,0c-1.7,0-4.5,0.3-7.3,0.6C8.6,5.4,6.7,8,3.9,9.2
		c0.3,2.2,0.7,4.6,1.1,6.7c0.5,2.2,1,4.1,1.6,5.4c1.7,4,7,8,9.7,9.9c0,0,0,0,0,0c2.7-1.9,8-5.9,9.6-9.9c0.5-1.3,1.1-3.3,1.6-5.4
		c0.5-2.2,0.9-4.6,1.1-6.8C26.1,7.8,24.3,5.3,23.9,2.4z"/>
	<g>
		<g>
			<path class="st4" d="M16.4,24.6L16,22.8l3.2-13.6l0,0c0.3-0.5,0.6-0.6,0.9-0.6c0.3,0,0.7,0,0.9,0.2c0-0.3-0.1-0.5-0.2-0.7
				c-0.4-0.4-1-0.5-1.1-0.5l-5,0l-0.3,2.8l-0.6-0.9L14,6.7l5.7,0c0,0,1.1,0.1,1.7,0.8c0.4,0.5,0.5,1.1,0.3,1.9L21.6,10l-0.5-0.4
				c-0.1-0.1-0.5-0.4-0.8-0.3c0,0-0.2,0-0.3,0.2L16.4,24.6z"/>
			<path class="st4" d="M16.4,26.2l-0.8-3.4l3.2-13.7L18.9,9c0.4-0.6,0.8-0.8,1.2-0.8c0.1,0,0.3,0,0.4,0c-0.2-0.2-0.6-0.3-0.8-0.3
				l-4.6,0l-0.4,3.4l-1.3-1.7l0.3-3.1l6,0l0,0c0.1,0,1.3,0.1,2,0.9c0.5,0.6,0.6,1.3,0.4,2.2l-0.3,1.2l-1-0.8
				c-0.1-0.1-0.4-0.3-0.5-0.3c0,0,0,0,0,0L16.4,26.2z M16.4,22.8L16.4,22.8l3.2-13.5l0-0.1c0,0,0,0,0-0.1c0,0-0.1,0.1-0.1,0.2
				L16.4,22.8z M21.1,9.1c0.1,0.1,0.2,0.2,0.2,0.2l0,0l0,0c0,0,0,0,0-0.1L21.1,9.1z M21.1,7.7C21.1,7.7,21.1,7.7,21.1,7.7
				c0.2,0.3,0.3,0.6,0.3,1l0,0.3C21.5,8.5,21.4,8.1,21.1,7.7C21.1,7.7,21.1,7.7,21.1,7.7z"/>
		</g>
	</g>
	<g>
		<path class="st4" d="M16.2,25.4c-0.3-1.5-1.2-2.8-2.8-3.2c0,0-0.4-0.1-0.9-0.1c-0.7,0-1.3-0.1-1.8-0.4c-0.8-0.5-1.3-1.5-1.1-2.6
			c0-0.2,0.1-0.4,0.2-0.6c0.1,1.4,1.2,2.4,2.8,2.4c0,0,0.1,0,0.1,0c0.3,0,0.5,0,0.8,0.1c0.4,0.1,0.3,0,0.7,0.3
			c1.3,0.8,2.2,2.2,2.2,3.6C16.3,25,16.3,25.2,16.2,25.4z"/>
		<path class="st4" d="M16.2,27.3l-0.4-1.8c-0.2-1.1-0.8-2.4-2.5-2.9c0,0-0.4-0.1-0.8-0.1c-0.7,0-1.4-0.1-2-0.5
			c-1-0.6-1.5-1.7-1.3-3c0-0.2,0.1-0.5,0.2-0.7l0.6-1.8l0.2,1.8c0.1,1.2,1.1,2.1,2.4,2.1c0,0,0,0,0,0c0,0,0.1,0,0.1,0l0,0
			c0,0,0,0,0,0c0.3,0,0.6,0,0.9,0.1c0.1,0,0.2,0,0.2,0c0.2,0,0.3,0.1,0.6,0.2c1.4,0.9,2.4,2.4,2.4,3.9c0,0.2,0,0.5-0.1,0.7
			L16.2,27.3z M12.5,21.8L12.5,21.8c0.6,0,1,0.1,1,0.1l0,0c0.6,0.2,1.2,0.4,1.6,0.8c-0.3-0.5-0.8-0.9-1.3-1.2
			c-0.2-0.1-0.2-0.1-0.3-0.2c-0.1,0-0.1,0-0.2-0.1c-0.2-0.1-0.5-0.1-0.7-0.1c0,0,0,0,0,0c0,0-0.1,0-0.1,0c-1,0-1.9-0.4-2.5-1.1
			c0.1,0.5,0.5,0.9,0.9,1.2C11.4,21.7,11.9,21.8,12.5,21.8L12.5,21.8z"/>
	</g>
	<path class="st6" d="M33.7,11.5c-2.9,3.2-9.2,4.4-15.2,2.8c0,0-1.6-0.5-3.3-1.3c-2.3-1.2-4.7-1.8-6.7-1.9c-3.5-0.1-6.3,1.4-7.1,4.3
		c-0.2,0.6-0.2,1.2-0.3,1.8C3.2,14,8.3,13.5,13.6,16c0.1,0.1,0.2,0.1,0.3,0.2c0.9,0.4,1.9,0.8,3,1.1c1.5,0.4,2.9,0.6,4.4,0.7
		c5.3,0.3,10.1-1.6,11.8-4.9C33.4,12.6,33.6,12,33.7,11.5z"/>
	<g>
		<path class="st5" d="M37.3,12.8l-2.7-0.1l-0.9,2.5c-0.2-0.8-0.5-1.8-0.7-2.6l-2.7-0.1l2.2-1.5l-0.7-2.6c0.6,0.5,1.5,1.2,2.1,1.7
			l2.2-1.5c-0.3,0.9-0.7,1.8-0.9,2.5L37.3,12.8z"/>
	</g>
</g>
</svg>
