<svg id="圖層_1" data-name="圖層 1" xmlns="http://www.w3.org/2000/svg" viewBox="0 0 107.69 32.44"><defs><style>.cls-1{fill:#231f20;}.cls-2{fill:#cd2027;opacity:0.31;}.cls-3{fill:#ed1c24;}.cls-4{fill:#931a1d;}.cls-5{fill:#fec20f;}.cls-6{fill:#213163;}.cls-7{fill:#2c3480;}</style></defs><title>logo</title><path class="cls-1" d="M72.58,35.11a5.21,5.21,0,0,0,2-2.05l.46.15a9.46,9.46,0,0,1-1.67,1.88c1.19,0,2.31-.13,3.37-.23a11.45,11.45,0,0,0-.72-.93l.4-.19a15.68,15.68,0,0,1,1.48,2.05l-.43.21c-.15-.26-.31-.5-.46-.74-1.3.12-2.76.2-4.36.27Zm4.65,3.63h-.45v-.31H73.55v.31H73.1V36.16h4.13ZM76.78,38V36.59H73.55V38Z" transform="translate(-28.6 -6.65)"/><path class="cls-1" d="M83.68,36.31c0,.15-.06.3-.09.45H86v.41H83.43a2.62,2.62,0,0,1-.57.75,4.72,4.72,0,0,1-2.13.85l-.19-.43a4.49,4.49,0,0,0,2-.72,2.07,2.07,0,0,0,.41-.46H80.83v-.41h2.28a2.62,2.62,0,0,0,.12-.49Zm-1.38-2.62a4.15,4.15,0,0,0-.29-.57l.46-.07a5.43,5.43,0,0,1,.28.65h1.32a3.23,3.23,0,0,0,.25-.67l.46.06a2.67,2.67,0,0,1-.26.61h1.38v.41H83.62v.59h1.95v.38H83.62v.61h2.48v.41h-5.4v-.41h2.48v-.61H81.24v-.38h1.93V34.1H80.9v-.41Zm3.94,4.7-.25.38a12.25,12.25,0,0,0-2.39-1l.23-.35A13.3,13.3,0,0,1,86.24,38.39Z" transform="translate(-28.6 -6.65)"/><path class="cls-1" d="M90.77,34.62v.71H91a.26.26,0,0,0,.25-.18,3.45,3.45,0,0,0,.06-.77H89.63A1.94,1.94,0,0,1,89,35l-.24-.29a1.65,1.65,0,0,0,.66-.9l.37.07a1.25,1.25,0,0,0,0,.15h1.9a3.72,3.72,0,0,1-.14,1.32.7.7,0,0,1-.11.12l.27,0a3.1,3.1,0,0,1,.19.38h2.41v.33H89v-.33h2.5a2.9,2.9,0,0,0-.15-.28,1.08,1.08,0,0,1-.25,0h-.25l0-.17H89.49v-.83ZM90.17,33v.83H89.8v-.24h-.87V33.3h.87V33Zm3.6,5.74h-.43V38.6H90v.18h-.43V37.63h4.23Zm-.17-2.3v.27H89.7v-.27Zm0,.57v.27H89.7V37Zm-3.15-2.19h-.62v.36h.62Zm2.9,3.45v-.38H90v.38ZM91,33v.26h.85v.33H91v.25h-.37V33Zm1,1.46-.24-.3A2.2,2.2,0,0,0,92.42,33l.39.07c0,.12-.07.24-.11.35h1.59v.36h-.45a2.42,2.42,0,0,1-.4.92,8.32,8.32,0,0,1,.85.61l-.29.28A9,9,0,0,0,93.2,35a2.61,2.61,0,0,1-1.18.6l-.16-.35a2.49,2.49,0,0,0,1-.46l-.57-.35.26-.25.57.33a1.89,1.89,0,0,0,.32-.72h-.9A2.4,2.4,0,0,1,92,34.51Z" transform="translate(-28.6 -6.65)"/><path class="cls-1" d="M98.43,35.54l-.32.32a6.69,6.69,0,0,0-1-.94l.32-.3A6.91,6.91,0,0,1,98.43,35.54Zm.16.89a21.13,21.13,0,0,1-1,2.24l-.41-.18a19.29,19.29,0,0,0,1-2.21Zm.08-2.34-.31.32a6.64,6.64,0,0,0-1.08-.94l.31-.3A7.52,7.52,0,0,1,98.67,34.09Zm1.22.22-.36.17a7,7,0,0,0-.69-1.05l.37-.18A10.48,10.48,0,0,1,99.89,34.3Zm1-1.22v1.69h1.33v3.31c0,.41-.2.61-.58.61h-.72l-.12-.43h.69a.26.26,0,0,0,.29-.29v-.61H99.57V38.7h-.45V34.77h1.32V33.08Zm.9,2.11H99.57v.71h2.23ZM99.57,37h2.23v-.71H99.57Zm2.94-3.61a5.49,5.49,0,0,1-.72,1.14l-.35-.18a6.1,6.1,0,0,0,.71-1.13Z" transform="translate(-28.6 -6.65)"/><path class="cls-1" d="M108.38,34.15h1.93v.33a7.23,7.23,0,0,1-3.16,3.13l0,0a1.52,1.52,0,0,0,1,.5l1.23,0,1.36,0-.1.45h-1.19l-1.17,0a1.87,1.87,0,0,1-1.51-.68.48.48,0,0,0-.31-.2c-.17,0-.43.34-.77,1l-.36-.25c.41-.83.78-1.25,1.14-1.25a.37.37,0,0,1,.21.06l.06,0a7.21,7.21,0,0,0,2.95-2.73h-4v-.43h2.13a5.87,5.87,0,0,0-.58-1l.51-.09A9.77,9.77,0,0,1,108.38,34.15Z" transform="translate(-28.6 -6.65)"/><path class="cls-1" d="M115.38,33.92c0-.27.07-.56.1-.85h.44c0,.3-.06.58-.1.85H119v.43h-3.27c-.06.33-.11.64-.17.93h2.83v.39a4.42,4.42,0,0,1-1.18,1.76,5.38,5.38,0,0,0,1.88.88l-.22.41a5.64,5.64,0,0,1-2-1,7.2,7.2,0,0,1-2,1l-.24-.42a6.54,6.54,0,0,0,1.88-.88,4.05,4.05,0,0,1-1-1.74h0a7.65,7.65,0,0,1-.25.8,6.36,6.36,0,0,1-1.45,2.18l-.28-.36a6.23,6.23,0,0,0,1.32-2,10.39,10.39,0,0,0,.48-2h-1.64v-.43Zm1.53,3.24a3.75,3.75,0,0,0,1-1.46h-2A3.69,3.69,0,0,0,116.91,37.16Z" transform="translate(-28.6 -6.65)"/><path class="cls-1" d="M122.39,34.52V33.15h.43v1.37h.69v.41h-.69v3.72h-.43V34.94h-.72v-.41ZM125,38.28a.55.55,0,0,1-.54.36l-.38,0-.1-.38.39,0c.16,0,.27-.11.32-.31a13.22,13.22,0,0,0,.07-1.55h-.5a5.26,5.26,0,0,1-.2,1.09,2.84,2.84,0,0,1-.76,1.16l-.28-.35a2.44,2.44,0,0,0,.67-1,4.51,4.51,0,0,0,.16-.91h-.56V36h.59c0-.18,0-.36,0-.56h.41c0,.2,0,.38,0,.56h.87A9.24,9.24,0,0,1,125,38.28ZM126.71,35a.74.74,0,0,1-.69.3l-.4,0-.12-.4a3.55,3.55,0,0,0,.49,0c.23,0,.36-.1.4-.28a3.08,3.08,0,0,0,.06-.6h-1.11l0,.17a1.37,1.37,0,0,1-.45.71,2.4,2.4,0,0,1-1,.45l-.23-.36a2.26,2.26,0,0,0,.87-.35,1.06,1.06,0,0,0,.38-.57s0,0,0,0h-1.1v-.4H125c0-.15,0-.31,0-.47h.41c0,.17,0,.33,0,.47h1.5A3.05,3.05,0,0,1,126.71,35Zm.41,3.28a.52.52,0,0,1-.5.37l-.47,0-.1-.38.48,0c.15,0,.24-.11.28-.31a12.75,12.75,0,0,0,.06-1.54h-.55a5.21,5.21,0,0,1-.19,1.08,2.77,2.77,0,0,1-.76,1.16l-.26-.33a2.45,2.45,0,0,0,.64-1,4.34,4.34,0,0,0,.16-.9h-.46V36h.49c0-.18,0-.37,0-.57h.41c0,.2,0,.39,0,.57h.93A9.42,9.42,0,0,1,127.11,38.27Z" transform="translate(-28.6 -6.65)"/><path class="cls-1" d="M130.16,34.91l-.24-.37a15.32,15.32,0,0,0,2.7-1.45h.27a15.29,15.29,0,0,0,2.7,1.44l-.24.37c-.5-.23-1-.46-1.38-.69v.26h-2.45v-.24Q130.9,34.56,130.16,34.91Zm4.77-.11v1.58H130.6V34.8Zm-.22,3.95h-.43v-.23h-3v.24h-.43v-2h3.89Zm-2.15-3.61H131V36h1.56Zm1.72,2.3V37h-3v.4Zm0,.72v-.4h-3v.4Zm-2.18-2.28-.3.07a3.8,3.8,0,0,0-.32-.62l.3-.1A3.21,3.21,0,0,1,132.1,35.88Zm.66-2.41c-.33.22-.69.44-1.07.66h2.16C133.46,33.91,133.09,33.69,132.76,33.47Zm1.76,1.67H133V36h1.56Zm-.49.17a2.6,2.6,0,0,1-.31.64l-.3-.1a2.83,2.83,0,0,0,.31-.61Z" transform="translate(-28.6 -6.65)"/><path class="cls-1" d="M80.78,14H77.13V27.58H74.7V14H71.06" transform="translate(-28.6 -6.65)"/><path class="cls-1" d="M97.82,23.74l1.67,3.84h2.62L94.58,10.75,86.67,27.58h2.62L91,23.74l1-2.29m0,0,2.45-5.39,2.36,5.39,1,2.29" transform="translate(-28.6 -6.65)"/><path class="cls-1" d="M117.63,14H112.1v4h5.34v2.29H112.1v7.29h-2.43V11.68h8Z" transform="translate(-28.6 -6.65)"/><path class="cls-1" d="M128.78,11.68a7.12,7.12,0,0,1,4.19.93,4.44,4.44,0,0,1,1.88,3.74,4.36,4.36,0,0,1-3.53,4.43l5,6.79h-2.93l-4.55-6.51h-.43v6.51h-2.43V11.68ZM128.38,19h.76c.67,0,3.38-.07,3.38-2.6,0-2.24-2.12-2.46-3.31-2.46h-.83Z" transform="translate(-28.6 -6.65)"/><path class="cls-2" d="M74.32,9.61h0Z" transform="translate(-28.6 -6.65)"/><path class="cls-3" d="M85.42,9.4c-1.53,2.21-5.07,3.49-8.54,2.93a14.48,14.48,0,0,1-2-.53A8,8,0,0,0,71,11.14a4.08,4.08,0,0,0-3.87,3.24,4.66,4.66,0,0,0-.07,1.13c1.06-2.13,4-2.88,7.09-1.7l.19.07a9.24,9.24,0,0,0,1.77.46,10.41,10.41,0,0,0,2.53.09c3-.26,5.71-1.81,6.53-4A3.87,3.87,0,0,0,85.42,9.4Z" transform="translate(-28.6 -6.65)"/><path class="cls-3" d="M106.38,18.56c-1.53,2.21-5.07,3.49-8.54,2.93a14.48,14.48,0,0,1-2-.53A8,8,0,0,0,92,20.3a4.08,4.08,0,0,0-3.87,3.24A4.66,4.66,0,0,0,88,24.67c1.06-2.13,4-2.88,7.09-1.7l.19.07a9.24,9.24,0,0,0,1.77.46,10.41,10.41,0,0,0,2.53.09c3-.26,5.71-1.81,6.53-4A3.87,3.87,0,0,0,106.38,18.56Z" transform="translate(-28.6 -6.65)"/><path class="cls-4" d="M43.54,31.43a16.45,16.45,0,0,1-6.94,2.31C32.95,34,30,32.56,29,29.56a7,7,0,0,1-.35-1.86c2.31,3.21,7.7,3.54,13.14.62l.33-.18a19,19,0,0,1,3.11-1.32" transform="translate(-28.6 -6.65)"/><path class="cls-5" d="M55.27,9a5.1,5.1,0,0,1,.17-1.31,69.79,69.79,0,0,0-9.63-1,69,69,0,0,0-9.33,1A5.09,5.09,0,0,1,31.82,14,53.73,53.73,0,0,0,34.68,28c2.26,5.47,10.09,10.28,11.13,11.13,1-.85,8.86-5.66,11.13-11.13A53.76,53.76,0,0,0,59.79,14,5.09,5.09,0,0,1,55.27,9Z" transform="translate(-28.6 -6.65)"/><path class="cls-6" d="M45.8,7.47a65.91,65.91,0,0,0-7.64.67,8.78,8.78,0,0,1-5.29,7.15c.27,2.33.69,4.78,1.18,7a36.55,36.55,0,0,0,1.65,5.66C37.44,32.14,43,36.3,45.8,38.27h0V7.47Z" transform="translate(-28.6 -6.65)"/><path class="cls-7" d="M53.81,8.19a68.16,68.16,0,0,0-8-.72V38.26c2.78-2,8.35-6.13,10.09-10.32a36.49,36.49,0,0,0,1.65-5.66,72,72,0,0,0,1.2-7.15A8.78,8.78,0,0,1,53.81,8.19Z" transform="translate(-28.6 -6.65)"/><path class="cls-3" d="M62.68,22c-3,3.33-9.63,4.64-15.87,2.91a29.81,29.81,0,0,1-3.5-1.34,16.45,16.45,0,0,0-7-2C32.62,21.4,29.74,23,28.87,26a7,7,0,0,0-.26,1.87c2.17-3.31,7.54-3.88,13.1-1.19l.34.17A19,19,0,0,0,45.2,28a21.07,21.07,0,0,0,4.58.74c5.54.27,10.59-1.69,12.35-5.17A5.76,5.76,0,0,0,62.68,22Z" transform="translate(-28.6 -6.65)"/><path class="cls-7" d="M66.18,23.72l-2.79-.13-1,2.63c-.21-.79-.53-1.9-.76-2.71l-2.78-.13,2.33-1.53-.75-2.7,2.19,1.76L65,19.35c-.34.91-.71,1.89-1,2.63Z" transform="translate(-28.6 -6.65)"/></svg>